<svg width="205" height="60" viewBox="0 0 205 60" fill="none" xmlns="http://www.w3.org/2000/svg">
<path d="M21.6454 31.9403C22.3287 32.7121 22.3204 32.8621 21.6067 33.45C20.1017 34.6887 20.37 36.7548 22.1295 37.6185C22.4449 37.7734 22.6275 37.7613 22.7741 37.4613C23.8476 35.2766 25.9169 33.9218 28.0969 32.6927C31.6215 30.7089 35.4698 29.3202 39.4204 28.1395C39.7994 28.0258 40.0013 28.1032 40.1286 28.471C40.6459 29.9564 40.5961 31.4444 39.9543 32.8597C39.2405 34.4347 39.1354 36.0435 39.3484 37.6742C39.5532 39.2323 39.899 40.7782 40.1756 42.329C40.4495 43.8798 40.7123 45.4331 40.9807 46.9839C41.0056 47.1242 41.0222 47.2645 41.0416 47.4048C41.0997 47.8427 41.4538 47.8694 41.8522 47.8694C42.328 47.8694 42.3474 47.6008 42.3474 47.2984C42.3474 45.4234 42.364 43.546 42.3391 41.671C42.3335 41.204 42.4968 40.9113 42.9366 40.6185C47.186 37.7976 48.6744 34.0911 47.5291 29.746C46.8596 27.2153 45.2467 25.0113 43.3654 22.996C43.2382 22.8605 42.8592 22.8411 42.6129 22.8726C41.8743 22.9645 41.1495 23.1411 40.4108 23.2185C40.0733 23.2548 39.5504 23.2185 39.6389 22.7661C39.7081 22.4129 39.7468 21.929 40.5076 21.9847C41.8577 22.0815 43.2327 21.1887 43.6725 20.0492C43.6836 20.0202 43.6449 19.979 43.5646 19.8024C41.8162 20.3976 40.0677 20.9927 38.1478 21.6484C38.9639 19.8653 39.8602 18.3218 41.2186 17.0129C42.5908 15.6895 44.2618 14.8379 46.3478 14.6589C46.3422 14.5935 46.3367 14.5306 46.3339 14.4653C45.9466 14.4145 45.5593 14.3056 45.1775 14.3202C43.5204 14.3855 42.0458 14.9347 40.6764 15.7161C38.0288 17.2258 35.965 19.2581 34.1086 21.4548C33.0684 22.6839 32.1499 23.9903 31.165 25.2532C30.7694 25.7613 30.8441 26.2379 31.2314 26.7048C31.6436 27.2032 32.2025 27.1331 32.7945 27.0169C33.4142 26.8935 34.0422 26.7895 34.673 26.7194C35.8349 26.5887 37.008 26.521 38.1616 26.3637C38.7813 26.279 39.3208 26.0081 39.6223 25.4565C39.8907 24.9653 40.4246 25.1613 40.8424 25.229C40.9226 25.2411 41.0139 25.7274 40.9254 25.9403C40.5131 26.9419 39.52 27.375 38.441 27.5637C37.2293 27.7766 35.976 27.8105 34.7477 27.9653C34.0035 28.0597 33.2731 28.2339 32.5372 28.3718C31.0516 28.65 30.0031 28.0839 29.6241 26.7968C29.3862 25.9887 29.4443 25.2726 30.0059 24.5081C32.3491 21.329 34.8196 18.254 38.1782 15.8129C39.8768 14.5766 41.7304 13.6016 43.9381 13.1952C47.0809 12.6145 50.5557 14.2306 51.0287 17.3492C51.1615 18.2202 50.9845 19.0427 50.4146 19.7685C50.2845 19.9355 49.8391 20.1339 49.7644 20.0782C49.4518 19.8484 48.8542 19.6669 49.2222 19.1419C49.6925 18.4766 49.6953 17.775 49.5237 17.0419C49.3965 16.4903 49.0534 16.1613 48.4254 16.021C45.7972 15.4306 42.5078 16.8194 41.2712 19.1347C42.8426 18.8855 44.2618 18.1887 45.9771 18.4234C45.8277 18.8347 45.7364 19.2242 45.5482 19.5726C45.2467 20.1363 44.9368 20.7097 44.5274 21.2129C44.1733 21.646 44.2369 21.9314 44.591 22.3234C46.2399 24.1524 47.6397 26.1121 48.4946 28.3331C50.3288 33.0919 49.2111 37.5484 44.5772 41.0468C43.9685 41.5064 43.7196 41.9468 43.7445 42.6363C43.7998 44.1266 43.786 45.6218 43.75 47.1121C43.7362 47.7073 43.9962 47.879 44.6408 47.8694C46.4169 47.8427 48.193 47.8597 49.9664 47.8621C50.8959 47.8621 50.8959 47.8645 50.8987 48.646C50.9015 49.4323 50.8544 50.221 50.9098 51.0048C50.954 51.6121 50.7355 51.796 50.0273 51.7935C44.378 51.7694 38.7287 51.779 33.0795 51.779C28.9518 51.779 24.8241 51.7693 20.6965 51.7887C20.1044 51.7911 19.8665 51.6581 19.8969 51.1113C19.9191 50.7 20.0491 50.5355 20.536 50.5427C21.8501 50.5597 23.1642 50.5282 24.4783 50.5548C25.0067 50.5645 25.2225 50.4339 25.217 49.9452C25.1949 48.0895 25.2198 46.2339 25.1949 44.3782C25.1921 44.1218 25.0759 43.8097 24.8905 43.6161C23.6954 42.3823 22.7603 41.0443 22.4394 39.4185C22.4007 39.2226 22.1102 39.0048 21.875 38.9081C18.3173 37.4613 18.6409 33.8323 20.9704 32.3056C21.1834 32.1702 21.4241 32.0613 21.6454 31.9403ZM38.9335 29.6589C38.6347 29.7194 38.4272 29.7435 38.2363 29.804C35.0216 30.8564 31.8622 32.0153 28.9435 33.6169C27.2587 34.5435 25.6458 35.55 24.5641 37.0621C23.9527 37.9137 23.7009 38.8161 24.0108 39.8274C24.3843 41.0564 25.2447 42.0097 26.1327 42.9702C26.4094 43.2702 26.6141 43.7081 26.6252 44.0879C26.675 45.8419 26.6501 47.596 26.6473 49.35C26.6445 50.579 26.6418 50.5573 28.0472 50.5548C28.6143 50.5524 28.7499 50.3516 28.7416 49.9016C28.7167 48.6314 28.7499 47.3613 28.7222 46.0911C28.7139 45.6484 28.8716 45.3242 29.2478 45.0363C30.3157 44.221 31.1291 43.2411 31.3559 41.9976C31.5662 40.8484 31.7073 39.6871 31.7958 38.5258C31.8345 38.0444 32.0559 37.9694 32.5206 37.9645C32.9937 37.9597 33.287 38.0444 33.2206 38.5282C33.0435 39.8226 32.8831 41.1218 32.7005 42.4161C32.659 42.7137 32.5649 43.0234 33.0767 43.0113C34.8335 42.9726 36.5819 42.8685 38.1699 42.1258C38.3802 42.029 38.5904 41.6903 38.5627 41.4871C38.4189 40.4274 38.1505 39.3823 38.015 38.3226C37.7604 36.3484 37.7051 34.3887 38.6208 32.4919C39.0386 31.6234 39.1658 30.6823 38.9335 29.6589ZM39.0331 43.2726C38.7343 43.3282 38.6181 43.3331 38.5185 43.3718C36.9997 43.9694 35.3812 44.2427 33.7462 44.2113C32.4985 44.1871 31.5053 44.3564 30.8773 45.3798C30.8054 45.4984 30.6228 45.5685 30.5509 45.6871C30.3904 45.9581 30.1635 46.2435 30.1525 46.529C30.1082 47.6564 30.158 48.7863 30.1248 49.9161C30.1082 50.4314 30.3323 50.5621 30.8911 50.5573C33.4502 50.5355 36.0065 50.5476 38.5655 50.5476C41.9545 50.5476 45.3407 50.5548 48.7298 50.5331C48.9815 50.5306 49.4076 50.3734 49.4573 50.2137C49.7395 49.3403 49.4961 49.096 48.4725 49.096C44.1152 49.096 39.7607 49.0911 35.4034 49.1008C34.8916 49.1008 34.5872 49.0403 34.5789 48.4887C34.5706 47.9492 34.839 47.8452 35.3702 47.8524C36.5681 47.8718 37.766 47.85 38.9667 47.8597C39.3816 47.8621 39.6528 47.7702 39.5947 47.3516C39.4121 46.0234 39.2267 44.6879 39.0331 43.2726Z" fill="#348C31"/>
<path d="M35.1958 4.01613C45.7031 4.11774 55.1813 9.81774 58.8746 18.3339C63.2125 28.3379 58.869 39.5855 48.4973 45.2105C48.1238 45.4137 47.8195 45.6 47.5041 45.0919C47.2275 44.6468 47.2302 44.4097 47.7587 44.1218C52.7854 41.3782 56.191 37.5121 58.0114 32.5935C59.3255 29.0444 59.6022 25.3694 58.5952 21.7863C56.6697 14.9347 52.0246 9.89274 44.5439 7.03306C39.7938 5.21613 34.8196 4.77823 29.8011 5.87419C21.1861 7.75161 15.2713 12.3847 12.3941 19.7613C8.85293 28.8339 13.0442 38.9081 22.3315 44.0371C22.6496 44.2113 23.1697 44.296 22.9263 44.8258C22.622 45.4911 22.4172 45.5685 21.7173 45.1766C16.2396 42.1089 12.455 37.8944 10.7369 32.3903C8.27196 24.4935 10.2085 17.4073 16.4222 11.3177C19.7531 8.05403 23.9167 5.81613 28.8466 4.78548C29.5632 4.63548 30.2769 4.45403 31.0018 4.37419C32.3961 4.22419 33.7987 4.13468 35.1958 4.01613Z" fill="#348C31"/>
<path d="M35.0492 10.7153C31.9175 10.7153 28.7858 10.7153 25.6541 10.7153C25.4466 10.7153 25.2253 10.7395 25.0371 10.6839C24.896 10.6427 24.7024 10.4855 24.7079 10.3887C24.7134 10.2798 24.9016 10.125 25.0427 10.0887C25.2557 10.0331 25.4991 10.0524 25.7288 10.0524C32.0614 10.0524 38.3939 10.0524 44.7293 10.0548C44.9119 10.0548 45.1166 10.0331 45.2743 10.0936C45.4099 10.1468 45.5454 10.2992 45.5731 10.425C45.5897 10.4927 45.396 10.6524 45.2743 10.679C45.0558 10.7274 44.8178 10.7153 44.5882 10.7153C41.4067 10.7177 38.228 10.7153 35.0492 10.7153Z" fill="#348C31"/>
<path d="M27.5326 14.5186C25.0925 14.5186 22.6524 14.5186 20.2123 14.5186C20.0297 14.5186 19.8305 14.5427 19.6645 14.4919C19.5456 14.4556 19.3879 14.3056 19.3962 14.2161C19.41 14.0855 19.5234 13.904 19.6507 13.8581C19.8278 13.7903 20.0574 13.8194 20.2621 13.8194C25.1201 13.8169 29.9782 13.8194 34.8362 13.8194C34.9967 13.8194 35.182 13.7831 35.312 13.8387C35.467 13.9065 35.6606 14.0516 35.6717 14.1726C35.68 14.279 35.478 14.4387 35.3286 14.504C35.1986 14.5597 35.0133 14.521 34.8528 14.521C32.4155 14.5186 29.9754 14.5186 27.5326 14.5186Z" fill="#348C31"/>
<path d="M25.6541 16.4274C23.2361 16.4274 20.8182 16.4298 18.4002 16.425C18.0904 16.425 17.6561 16.4855 17.7446 16.05C17.7722 15.9121 18.1706 15.7403 18.3975 15.7379C23.2112 15.721 28.0222 15.7234 32.836 15.7282C33.1154 15.7282 33.4806 15.646 33.4779 16.0694C33.4751 16.4782 33.1293 16.4226 32.836 16.4226C30.443 16.4298 28.0499 16.4274 25.6541 16.4274Z" fill="#348C31"/>
<path d="M24.0495 17.6395C26.3319 17.6395 28.6115 17.6298 30.8939 17.6516C31.1291 17.654 31.5468 17.8113 31.5662 17.9371C31.6326 18.3411 31.2342 18.3242 30.9022 18.3242C26.3623 18.3242 21.8225 18.3266 17.2826 18.3266C17.1 18.3266 16.8897 18.3435 16.7431 18.2734C16.6131 18.2105 16.4969 18.0387 16.483 17.9056C16.4748 17.8282 16.6656 17.6927 16.7929 17.6589C16.9617 17.6129 17.1581 17.6371 17.3407 17.6371C19.576 17.6371 21.8114 17.6371 24.0467 17.6371C24.0495 17.6395 24.0495 17.6395 24.0495 17.6395Z" fill="#348C31"/>
<path d="M30.1469 12.6048C27.5879 12.6048 25.0316 12.6048 22.4726 12.6048C22.2872 12.6048 22.0935 12.6266 21.9248 12.5831C21.8003 12.5492 21.6094 12.4137 21.6177 12.3411C21.6343 12.2105 21.7505 12.0339 21.8805 11.9855C22.0576 11.9177 22.2872 11.9395 22.4919 11.9395C27.5381 11.9371 32.587 11.9347 37.6331 11.9323C37.7493 11.9323 37.8821 11.9008 37.9762 11.9419C38.2141 12.0435 38.4354 12.1766 38.6623 12.2976C38.4271 12.3992 38.1948 12.5903 37.9596 12.5903C35.3563 12.6121 32.753 12.6048 30.1469 12.6048Z" fill="#348C31"/>
<path d="M20.7103 23.9758C18.8235 23.9758 16.9367 23.9855 15.0527 23.9613C14.8258 23.9589 14.433 23.7871 14.4109 23.6565C14.3417 23.2258 14.7705 23.2887 15.0804 23.2887C18.8539 23.2863 22.6247 23.2839 26.3982 23.2911C26.6113 23.2911 26.8464 23.3444 27.0262 23.4411C27.1037 23.4823 27.1231 23.7653 27.0539 23.8137C26.9128 23.9129 26.6943 23.9685 26.5061 23.971C24.8047 23.9806 23.1005 23.9758 21.3991 23.9758C21.1695 23.9758 20.9399 23.9758 20.7103 23.9758Z" fill="#348C31"/>
<path d="M20.4447 27.8008C18.6492 27.8008 16.851 27.8032 15.0555 27.7984C14.8508 27.7984 14.6184 27.8177 14.4468 27.7427C14.3196 27.6871 14.2145 27.4984 14.2089 27.3653C14.2034 27.2831 14.3887 27.1645 14.516 27.1161C14.635 27.0726 14.7871 27.0968 14.9255 27.0968C18.5883 27.0968 22.2485 27.0968 25.9114 27.0992C26.0275 27.0992 26.1631 27.0677 26.2516 27.1089C26.4093 27.1863 26.5366 27.3097 26.6749 27.4113C26.5338 27.5395 26.4093 27.7452 26.2433 27.779C25.9362 27.8395 25.6043 27.7984 25.2806 27.7984C23.6677 27.8008 22.0576 27.8008 20.4447 27.8008Z" fill="#348C31"/>
<path d="M20.3202 25.1879C22.0714 25.1879 23.8254 25.1879 25.5766 25.1903C25.7371 25.1903 25.9279 25.154 26.0524 25.2169C26.2046 25.2919 26.3927 25.4565 26.39 25.5798C26.3872 25.6839 26.152 25.8121 25.9943 25.8798C25.8809 25.9282 25.7232 25.8919 25.5849 25.8919C22.0576 25.8919 18.5302 25.8919 15.0029 25.8919C14.8425 25.8919 14.6626 25.9234 14.5243 25.8726C14.3804 25.8194 14.1647 25.6621 14.184 25.5871C14.2172 25.4468 14.3749 25.2532 14.5188 25.2218C14.801 25.1589 15.1136 25.1903 15.4124 25.1903C17.0474 25.1855 18.6852 25.1855 20.3202 25.1879Z" fill="#348C31"/>
<path d="M22.669 20.1968C20.6218 20.1968 18.5718 20.1968 16.5245 20.1968C16.317 20.1968 16.093 20.2331 15.9076 20.175C15.7471 20.1266 15.6282 19.9718 15.4926 19.8629C15.6254 19.7589 15.7444 19.6258 15.8993 19.5581C16.01 19.5097 16.1704 19.546 16.3087 19.546C20.5913 19.546 24.8712 19.546 29.1537 19.546C29.3142 19.546 29.4913 19.5194 29.6324 19.5677C29.7569 19.6089 29.945 19.7516 29.9284 19.8242C29.9035 19.95 29.7707 20.1121 29.6379 20.1581C29.4553 20.221 29.2312 20.1944 29.0237 20.1944C26.9046 20.1968 24.7882 20.1944 22.669 20.1968Z" fill="#348C31"/>
<path d="M21.6647 22.0718C19.6867 22.0718 17.7058 22.0718 15.7278 22.0718C15.5452 22.0718 15.3432 22.1032 15.18 22.05C15.0389 22.004 14.8452 21.8516 14.8535 21.7548C14.8618 21.6435 15.0417 21.4984 15.1827 21.4476C15.3432 21.3919 15.5452 21.4185 15.7278 21.4185C19.6867 21.4185 23.6456 21.4185 27.6045 21.421C27.7207 21.421 27.8562 21.3895 27.9448 21.4306C28.1357 21.5202 28.3044 21.6484 28.4815 21.7597C28.3044 21.8661 28.1274 22.0645 27.9448 22.0669C26.2655 22.0887 24.5862 22.0742 22.9041 22.0718C22.4919 22.0718 22.0797 22.0718 21.6647 22.0718Z" fill="#348C31"/>
<path d="M35.1322 8.18467C36.6068 8.18467 38.0813 8.175 39.5559 8.19677C39.7496 8.19919 39.9404 8.37338 40.1313 8.47016C39.9377 8.59113 39.744 8.81855 39.5504 8.82097C36.6012 8.84274 33.6521 8.84032 30.7002 8.81613C30.5093 8.81371 30.3185 8.58871 30.1276 8.46532C30.3212 8.37097 30.5121 8.19677 30.7058 8.19193C32.1803 8.16774 33.6549 8.17984 35.1295 8.17984C35.1322 8.17984 35.1322 8.18225 35.1322 8.18467Z" fill="#348C31"/>
<path d="M17.7391 29.0105C18.6603 29.0105 19.5816 28.9935 20.5001 29.025C20.6854 29.0323 20.8625 29.221 21.0451 29.3274C20.868 29.446 20.6937 29.6613 20.5167 29.6637C18.6769 29.6879 16.8344 29.6855 14.9919 29.6613C14.8038 29.6589 14.6184 29.4508 14.4303 29.3371C14.6129 29.2282 14.7899 29.0323 14.9753 29.0274C15.8966 28.9935 16.8178 29.0105 17.7391 29.0105Z" fill="#348C31"/>
<path d="M53.1147 23.9758C52.3566 23.9758 51.5986 23.9952 50.8406 23.9613C50.6607 23.954 50.492 23.7556 50.3177 23.6468C50.4892 23.5258 50.6607 23.3032 50.835 23.3008C52.3262 23.2984 53.8174 23.3226 55.3085 23.3782C55.5022 23.3855 55.682 23.6129 55.8701 23.7387C55.6626 23.8065 55.4579 23.9274 55.2504 23.9347C54.5394 23.9589 53.8284 23.9444 53.1147 23.9444C53.1147 23.9565 53.1147 23.9661 53.1147 23.9758Z" fill="#348C31"/>
<path d="M53.2253 25.8895C52.47 25.8895 51.712 25.9089 50.9595 25.875C50.7686 25.8653 50.5888 25.6839 50.4034 25.5798C50.5888 25.4516 50.7686 25.2121 50.9568 25.2097C52.3981 25.1831 53.8395 25.2024 55.2809 25.2097C55.3943 25.2097 55.5326 25.2073 55.6156 25.2581C55.765 25.3524 55.8812 25.4855 56.0112 25.604C55.8618 25.696 55.7152 25.8629 55.5603 25.8702C54.7829 25.8968 54.0027 25.8823 53.2253 25.8823C53.2253 25.8847 53.2253 25.8871 53.2253 25.8895Z" fill="#348C31"/>
<path d="M53.6486 27.7524C53.0289 27.7524 52.4092 27.7694 51.7923 27.7403C51.6373 27.7331 51.4935 27.5685 51.3441 27.4766C51.4935 27.3605 51.6373 27.1452 51.7923 27.1403C53.0759 27.1064 54.3596 27.0968 55.6433 27.1161C55.7954 27.1185 55.9448 27.3242 56.097 27.4355C55.9448 27.5564 55.801 27.7694 55.6433 27.779C54.9821 27.8177 54.3126 27.796 53.6486 27.796C53.6486 27.779 53.6486 27.7645 53.6486 27.7524Z" fill="#348C31"/>
<path d="M25.7647 29.0129C26.2682 29.0129 26.7745 28.9911 27.2752 29.0274C27.4219 29.0371 27.5519 29.2161 27.6902 29.3153C27.563 29.4315 27.4385 29.6468 27.3084 29.6492C26.2793 29.6782 25.2474 29.6806 24.221 29.6492C24.0799 29.6444 23.9443 29.4097 23.8088 29.279C23.9582 29.1895 24.102 29.0323 24.2597 29.0226C24.7577 28.9911 25.2612 29.0129 25.7647 29.0129Z" fill="#348C31"/>
<path d="M53.8782 29.0153C54.3817 29.0153 54.888 28.9935 55.3888 29.0274C55.5465 29.0371 55.6903 29.1968 55.8397 29.2887C55.6986 29.4145 55.5603 29.6444 55.4137 29.6492C54.4066 29.6831 53.3996 29.6855 52.3926 29.654C52.2515 29.6492 52.1215 29.4145 51.9832 29.2839C52.1325 29.1944 52.2792 29.0371 52.4369 29.025C52.9127 28.9935 53.3969 29.0153 53.8782 29.0153Z" fill="#348C31"/>
<path d="M53.7842 31.5508C53.419 31.5508 53.0455 31.5823 52.6886 31.5363C52.542 31.5169 52.4258 31.3331 52.2958 31.2218C52.4341 31.1226 52.5697 30.9411 52.7135 30.9339C53.4439 30.9 54.1798 30.8952 54.9102 30.9218C55.054 30.9266 55.1896 31.1081 55.3307 31.2073C55.1813 31.321 55.0485 31.5121 54.8825 31.5363C54.5228 31.5895 54.1494 31.5532 53.7842 31.5508C53.7842 31.5532 53.7842 31.5532 53.7842 31.5508Z" fill="#348C31"/>
<path d="M16.3641 31.546C15.9961 31.546 15.6226 31.5726 15.263 31.5315C15.1413 31.5169 14.9614 31.3307 14.9587 31.2218C14.9587 31.1226 15.1634 30.9411 15.2824 30.9387C16.0404 30.9194 16.8012 30.9266 17.5592 30.9605C17.6809 30.9653 17.7916 31.1516 17.9078 31.2557C17.7861 31.3548 17.6699 31.5242 17.5371 31.5387C17.1498 31.5774 16.7569 31.5532 16.3641 31.5532C16.3641 31.5484 16.3641 31.546 16.3641 31.546Z" fill="#348C31"/>
<path d="M53.9612 22.0694C53.6154 22.0694 53.2641 22.0984 52.9266 22.0548C52.7716 22.0355 52.6416 21.8686 52.4977 21.7694C52.6278 21.6556 52.7523 21.45 52.8906 21.4452C53.6016 21.4113 54.3181 21.4113 55.0291 21.4427C55.1675 21.45 55.2947 21.6556 55.4275 21.7718C55.2837 21.871 55.1509 22.0355 54.9932 22.0573C54.6556 22.1008 54.3071 22.0694 53.9612 22.0694Z" fill="#348C31"/>
<path d="M53.4411 33.4355C53.2115 33.4355 52.9708 33.4718 52.7578 33.4234C52.5973 33.3871 52.4673 33.2371 52.3234 33.1403C52.4535 33.0242 52.5724 32.8234 52.7135 32.8113C53.1894 32.7677 53.679 32.7605 54.1549 32.804C54.3126 32.8185 54.4426 33.0363 54.5865 33.1621C54.4343 33.254 54.296 33.3919 54.13 33.4258C53.9114 33.4718 53.6707 33.4379 53.4411 33.4355Z" fill="#348C31"/>
<path d="M52.8574 35.504C52.5392 35.3105 52.1077 35.175 52.0966 35.0177C52.0634 34.5774 52.5392 34.6742 52.8574 34.6645C53.1894 34.6548 53.6376 34.6089 53.5905 35.0444C53.5739 35.1968 53.17 35.3177 52.8574 35.504Z" fill="#348C31"/>
<path d="M54.296 20.371C54.0138 20.1508 53.8533 20.0226 53.6901 19.8944C53.8589 19.7782 54.0248 19.5798 54.2019 19.5702C54.3845 19.5629 54.5809 19.7395 54.7718 19.8339C54.639 19.9815 54.509 20.1266 54.296 20.371Z" fill="#348C31"/>
<path d="M16.1206 33.5831C15.927 33.3726 15.8052 33.2444 15.6863 33.1137C15.844 33.0048 16.0183 32.7968 16.1566 32.8113C16.3336 32.8331 16.483 33.0363 16.6435 33.1597C16.4969 33.2782 16.353 33.3943 16.1206 33.5831Z" fill="#348C31"/>
<path d="M52.4673 36.8613C52.1962 37.0573 52.0468 37.2484 51.9333 37.2315C51.7646 37.2097 51.6235 37.0403 51.4686 36.9363C51.582 36.8129 51.6816 36.6024 51.8116 36.5903C51.9693 36.5734 52.1491 36.7185 52.4673 36.8613Z" fill="#348C31"/>
<path d="M70.7983 27.8323C69.6723 27.8323 68.8009 27.6266 68.1784 27.2153C67.5559 26.804 67.1243 26.2476 66.8837 25.5508C66.6402 24.854 66.5212 24.075 66.5212 23.2161V18.3097C66.5212 17.371 66.643 16.5532 66.8837 15.8565C67.1243 15.1597 67.5559 14.6177 68.1784 14.2355C68.8009 13.8532 69.6723 13.6597 70.7983 13.6597C71.7915 13.6597 72.5799 13.8194 73.1637 14.1411C73.7446 14.4605 74.1652 14.9202 74.4197 15.5129C74.6742 16.1081 74.8015 16.8242 74.8015 17.6589V18.7573H72.7017V17.7798C72.7017 17.2645 72.6712 16.8097 72.6131 16.4153C72.555 16.021 72.3946 15.7137 72.1318 15.4984C71.8689 15.2806 71.4318 15.1718 70.8177 15.1718C70.1897 15.1718 69.7304 15.2903 69.4427 15.5226C69.155 15.7573 68.9696 16.0887 68.8839 16.5169C68.7981 16.9452 68.7566 17.446 68.7566 18.0194V23.5282C68.7566 24.225 68.823 24.779 68.953 25.1831C69.083 25.5895 69.2988 25.8774 69.6004 26.0492C69.9019 26.221 70.3059 26.3056 70.8177 26.3056C71.418 26.3056 71.8496 26.1895 72.1124 25.9548C72.3752 25.7202 72.5384 25.396 72.6021 24.9847C72.6685 24.5734 72.6989 24.0919 72.6989 23.5427V22.5121H74.7987V23.5427C74.7987 24.3895 74.6797 25.1371 74.4446 25.7831C74.2094 26.429 73.8028 26.9323 73.2273 27.2927C72.6574 27.6532 71.8468 27.8323 70.7983 27.8323Z" fill="#348C31"/>
<path d="M78.7853 27.8153C78.3399 27.8153 77.947 27.704 77.6067 27.4815C77.2665 27.2589 76.9981 26.9734 76.8017 26.6226C76.6053 26.2742 76.5084 25.904 76.5084 25.5169C76.5084 24.9 76.6274 24.3798 76.8625 23.9565C77.0977 23.5331 77.4214 23.175 77.8336 22.8847C78.2458 22.5919 78.7216 22.3379 79.2667 22.1202C79.8089 21.9024 80.3816 21.6919 80.9847 21.4863V20.7823C80.9847 20.3831 80.957 20.0492 80.9072 19.7879C80.8547 19.5242 80.7468 19.3282 80.5835 19.1952C80.4203 19.0645 80.1741 18.9968 79.8476 18.9968C79.5599 18.9968 79.3275 19.0548 79.1505 19.1685C78.9734 19.2823 78.8461 19.4468 78.7687 19.6573C78.6912 19.8702 78.6497 20.1169 78.6497 20.4048V20.9032L76.5693 20.8355C76.5942 19.7371 76.8819 18.929 77.4325 18.4065C77.983 17.8863 78.8323 17.625 79.9832 17.625C81.1092 17.625 81.9059 17.8935 82.3762 18.4306C82.8466 18.9677 83.0817 19.7468 83.0817 20.7653V25.2968C83.0817 25.6065 83.0928 25.904 83.1121 26.1895C83.1315 26.475 83.1592 26.7411 83.1896 26.9879C83.2228 27.2347 83.2505 27.4669 83.2781 27.6823H81.3554C81.3167 27.4984 81.2669 27.2685 81.2088 26.9879C81.1507 26.7073 81.1064 26.4532 81.0815 26.2234C80.9515 26.6129 80.6997 26.9758 80.3262 27.3121C79.9528 27.646 79.441 27.8153 78.7853 27.8153ZM79.6097 26.2379C79.82 26.2379 80.0164 26.1871 80.199 26.0831C80.3816 25.979 80.5448 25.8629 80.6887 25.7323C80.8325 25.6016 80.9293 25.4952 80.9819 25.4153V22.5992C80.6555 22.7589 80.3484 22.9185 80.0607 23.0806C79.7729 23.2403 79.5212 23.4097 79.3054 23.5863C79.0896 23.7629 78.9181 23.9637 78.7964 24.1863C78.6719 24.4089 78.611 24.6629 78.611 24.9508C78.611 25.3524 78.6968 25.6669 78.8655 25.8944C79.0343 26.1218 79.2833 26.2379 79.6097 26.2379Z" fill="#348C31"/>
<path d="M85.104 30.9387V17.7605H87.2038V18.5492C87.4528 18.2976 87.7544 18.0798 88.1057 17.896C88.4598 17.7121 88.8776 17.6202 89.3617 17.6202C89.951 17.6202 90.4185 17.7556 90.7644 18.0242C91.1102 18.2927 91.3702 18.6315 91.539 19.0355C91.7077 19.4419 91.8212 19.8532 91.8737 20.2718C91.9263 20.6903 91.9512 21.046 91.9512 21.3435V23.746C91.9512 24.4427 91.8737 25.1056 91.716 25.7274C91.5583 26.3516 91.2734 26.8548 90.8612 27.2371C90.449 27.6194 89.8708 27.8129 89.1238 27.8129C88.7171 27.8129 88.3575 27.7234 88.0449 27.5468C87.7322 27.3702 87.4501 27.1669 87.2011 26.9371V30.9363H85.104V30.9387ZM88.7144 26.3734C89.0795 26.3734 89.3424 26.2573 89.5001 26.0226C89.6577 25.7879 89.7546 25.471 89.7933 25.0694C89.832 24.6702 89.8514 24.2274 89.8514 23.7484V21.346C89.8514 20.9347 89.8237 20.5548 89.7739 20.204C89.7214 19.8556 89.6107 19.5774 89.4392 19.3718C89.2677 19.1661 89.0021 19.0621 88.6341 19.0621C88.3602 19.0621 88.0974 19.1129 87.8484 19.2169C87.5994 19.321 87.3837 19.4395 87.2011 19.5774V25.9258C87.3975 26.0516 87.6188 26.1581 87.8678 26.2427C88.1195 26.3323 88.4017 26.3734 88.7144 26.3734Z" fill="#348C31"/>
<path d="M93.9154 27.6774V17.7581H96.0152V19.1661C96.433 18.5589 96.8535 18.1548 97.2712 17.9468C97.689 17.7411 98.1095 17.6371 98.5272 17.6371C98.5798 17.6371 98.6296 17.6371 98.6739 17.6371C98.7209 17.6371 98.7818 17.6419 98.8592 17.654V19.679C98.7015 19.621 98.5217 19.5726 98.3198 19.5339C98.1178 19.4927 97.9103 19.4734 97.7028 19.4734C97.3764 19.4734 97.0776 19.5387 96.8092 19.6718C96.5409 19.8024 96.2753 20.0589 96.0152 20.4363V27.6774H93.9154V27.6774Z" fill="#348C31"/>
<path d="M103.294 27.8153C102.403 27.8153 101.717 27.6629 101.233 27.3605C100.749 27.0581 100.411 26.6105 100.223 26.0226C100.032 25.4347 99.9382 24.7089 99.9382 23.8524V21.5879C99.9382 20.7073 100.035 19.9742 100.231 19.3911C100.428 18.8081 100.771 18.3677 101.261 18.0702C101.75 17.7726 102.428 17.625 103.291 17.625C104.246 17.625 104.948 17.7968 105.399 18.1403C105.85 18.4839 106.149 18.9774 106.293 19.6258C106.437 20.2718 106.509 21.0484 106.509 21.9508V22.7565H102.035V24.7476C102.035 25.1492 102.077 25.4734 102.162 25.725C102.248 25.9766 102.384 26.1629 102.575 26.2839C102.763 26.4048 103.009 26.4653 103.311 26.4653C103.623 26.4653 103.864 26.4 104.027 26.2669C104.19 26.1363 104.301 25.9476 104.362 25.7008C104.42 25.454 104.45 25.1661 104.45 24.8347V24.2347H106.492V24.6121C106.492 25.6065 106.249 26.3903 105.767 26.9637C105.283 27.5298 104.459 27.8153 103.294 27.8153ZM102.038 21.7573H104.45V20.8645C104.45 20.4532 104.423 20.1073 104.373 19.8266C104.32 19.546 104.212 19.3355 104.049 19.1927C103.886 19.05 103.629 18.9774 103.275 18.9774C102.934 18.9774 102.677 19.0452 102.5 19.1831C102.323 19.321 102.201 19.5508 102.138 19.8774C102.071 20.204 102.041 20.6516 102.041 21.225V21.7573H102.038Z" fill="#348C31"/>
<path d="M111.436 27.8153C110.847 27.8153 110.374 27.7185 110.014 27.5226C109.654 27.329 109.391 27.0532 109.228 26.7C109.065 26.3468 108.982 25.9282 108.982 25.4468V18.9774H107.784V17.7581H108.982V14.8597H111.082V17.7605H112.908V18.9798H111.082V25.3282C111.082 25.7177 111.154 25.996 111.298 26.1605C111.441 26.3274 111.715 26.4097 112.122 26.4097C112.227 26.4097 112.349 26.4048 112.484 26.3927C112.623 26.3806 112.756 26.371 112.886 26.3589V27.7137C112.623 27.7476 112.382 27.7742 112.161 27.7911C111.939 27.8081 111.699 27.8153 111.436 27.8153Z" fill="#348C31"/>
<path d="M117.481 27.8153C116.891 27.8153 116.418 27.7185 116.059 27.5226C115.699 27.329 115.436 27.0532 115.273 26.7C115.11 26.3468 115.027 25.9282 115.027 25.4468V18.9774H113.829V17.7581H115.027V14.8597H117.127V17.7605H118.953V18.9798H117.127V25.3282C117.127 25.7177 117.199 25.996 117.342 26.1605C117.486 26.3274 117.76 26.4097 118.167 26.4097C118.272 26.4097 118.394 26.4048 118.529 26.3927C118.668 26.3806 118.8 26.371 118.93 26.3589V27.7137C118.668 27.7476 118.427 27.7742 118.206 27.7911C117.984 27.8081 117.744 27.8153 117.481 27.8153Z" fill="#348C31"/>
<path d="M123.642 27.8153C122.751 27.8153 122.065 27.6629 121.581 27.3605C121.097 27.0581 120.759 26.6105 120.571 26.0226C120.38 25.4347 120.286 24.7089 120.286 23.8524V21.5879C120.286 20.7073 120.383 19.9742 120.579 19.3911C120.776 18.8081 121.119 18.3677 121.608 18.0702C122.098 17.7726 122.776 17.625 123.639 17.625C124.594 17.625 125.296 17.7968 125.747 18.1403C126.198 18.4839 126.497 18.9774 126.641 19.6258C126.785 20.2718 126.857 21.0484 126.857 21.9508V22.7565H122.383V24.7476C122.383 25.1492 122.425 25.4734 122.51 25.725C122.596 25.9766 122.732 26.1629 122.923 26.2839C123.113 26.4048 123.357 26.4653 123.658 26.4653C123.971 26.4653 124.212 26.4 124.375 26.2669C124.538 26.1363 124.649 25.9476 124.71 25.7008C124.768 25.454 124.798 25.1661 124.798 24.8347V24.2347H126.84V24.6121C126.84 25.6065 126.596 26.3903 126.115 26.9637C125.631 27.5298 124.807 27.8153 123.642 27.8153ZM122.386 21.7573H124.798V20.8645C124.798 20.4532 124.773 20.1073 124.721 19.8266C124.668 19.546 124.56 19.3355 124.397 19.1927C124.234 19.05 123.974 18.9774 123.622 18.9774C123.282 18.9774 123.025 19.0452 122.848 19.1831C122.671 19.321 122.549 19.5508 122.485 19.8774C122.422 20.204 122.389 20.6516 122.389 21.225V21.7573H122.386Z" fill="#348C31"/>
<path d="M135.178 27.6774V15.2202H132.489V13.7782H140.006V15.2202H137.397V27.6774H135.178Z" fill="#348C31"/>
<path d="M141.497 16.2847V14.3637H143.597V16.2847H141.497ZM141.497 27.6774V17.7581H143.597V27.6774H141.497Z" fill="#348C31"/>
<path d="M149.916 27.8153C149.509 27.8153 149.146 27.7258 148.826 27.5492C148.505 27.3726 148.228 27.1742 147.993 26.9565V27.6774H145.893V13.7782H147.993V18.5492C148.242 18.2976 148.538 18.0798 148.886 17.896C149.232 17.7121 149.647 17.6202 150.131 17.6202C150.721 17.6202 151.188 17.7556 151.534 18.0242C151.88 18.2927 152.14 18.6315 152.309 19.0355C152.477 19.4419 152.591 19.8532 152.643 20.2718C152.696 20.6903 152.721 21.046 152.721 21.3436V23.746C152.721 24.4427 152.643 25.1056 152.486 25.7274C152.328 26.3516 152.049 26.8548 151.642 27.2371C151.238 27.6242 150.663 27.8153 149.916 27.8153ZM149.484 26.3734C149.849 26.3734 150.112 26.2573 150.27 26.0226C150.427 25.7879 150.524 25.471 150.563 25.0694C150.602 24.6702 150.621 24.2274 150.621 23.7484V21.346C150.621 20.9347 150.596 20.5548 150.544 20.204C150.491 19.8556 150.38 19.5774 150.209 19.3718C150.037 19.1661 149.772 19.0621 149.404 19.0621C149.13 19.0621 148.87 19.1129 148.629 19.2169C148.386 19.321 148.175 19.4347 147.993 19.5605V25.9258C148.175 26.0516 148.394 26.1581 148.651 26.2427C148.906 26.3323 149.182 26.3734 149.484 26.3734Z" fill="#348C31"/>
<path d="M157.764 27.8153C156.873 27.8153 156.187 27.6629 155.703 27.3605C155.219 27.0581 154.881 26.6105 154.693 26.0226C154.502 25.4347 154.408 24.7089 154.408 23.8524V21.5879C154.408 20.7073 154.505 19.9742 154.702 19.3911C154.898 18.8081 155.241 18.3677 155.731 18.0702C156.22 17.7726 156.898 17.625 157.761 17.625C158.716 17.625 159.419 17.7968 159.87 18.1403C160.321 18.4839 160.619 18.9774 160.763 19.6258C160.907 20.2718 160.979 21.0484 160.979 21.9508V22.7565H156.505V24.7476C156.505 25.1492 156.547 25.4734 156.633 25.725C156.718 25.9766 156.854 26.1629 157.045 26.2839C157.233 26.4048 157.479 26.4653 157.781 26.4653C158.096 26.4653 158.334 26.4 158.497 26.2669C158.661 26.1363 158.771 25.9476 158.832 25.7008C158.89 25.454 158.921 25.1661 158.921 24.8347V24.2347H160.962V24.6121C160.962 25.6065 160.719 26.3903 160.238 26.9637C159.753 27.5298 158.929 27.8153 157.764 27.8153ZM156.508 21.7573H158.921V20.8645C158.921 20.4532 158.893 20.1073 158.843 19.8266C158.791 19.546 158.683 19.3355 158.519 19.1927C158.356 19.05 158.099 18.9774 157.745 18.9774C157.405 18.9774 157.147 19.0452 156.97 19.1831C156.793 19.321 156.671 19.5508 156.608 19.8774C156.541 20.204 156.511 20.6516 156.511 21.225V21.7573H156.508Z" fill="#348C31"/>
<path d="M165.909 27.8153C165.32 27.8153 164.847 27.7185 164.487 27.5226C164.127 27.329 163.864 27.0532 163.701 26.7C163.538 26.3468 163.455 25.9282 163.455 25.4468V18.9774H162.257V17.7581H163.455V14.8597H165.555V17.7605H167.381V18.9798H165.555V25.3282C165.555 25.7177 165.627 25.996 165.771 26.1605C165.914 26.3274 166.188 26.4097 166.595 26.4097C166.7 26.4097 166.822 26.4048 166.957 26.3927C167.096 26.3806 167.229 26.371 167.359 26.3589V27.7137C167.096 27.7476 166.855 27.7742 166.634 27.7911C166.41 27.8081 166.169 27.8153 165.909 27.8153Z" fill="#348C31"/>
<path d="M170.972 27.8153C170.526 27.8153 170.133 27.704 169.793 27.4815C169.453 27.2589 169.184 26.9734 168.988 26.6226C168.792 26.2742 168.695 25.904 168.695 25.5169C168.695 24.9 168.814 24.3798 169.049 23.9565C169.284 23.5331 169.608 23.175 170.02 22.8847C170.432 22.5919 170.908 22.3379 171.453 22.1202C171.995 21.9024 172.568 21.6919 173.171 21.4863V20.7823C173.171 20.3831 173.146 20.0492 173.094 19.7879C173.041 19.5242 172.933 19.3282 172.77 19.1952C172.607 19.0645 172.36 18.9968 172.034 18.9968C171.746 18.9968 171.514 19.0548 171.337 19.1685C171.16 19.2823 171.032 19.4468 170.955 19.6573C170.878 19.8702 170.836 20.1169 170.836 20.4048V20.9032L168.756 20.8355C168.781 19.7371 169.068 18.929 169.619 18.4065C170.169 17.8863 171.019 17.625 172.17 17.625C173.296 17.625 174.092 17.8935 174.563 18.4306C175.033 18.9677 175.268 19.7468 175.268 20.7653V25.2968C175.268 25.6065 175.279 25.904 175.299 26.1895C175.318 26.475 175.346 26.7411 175.376 26.9879C175.409 27.2347 175.437 27.4669 175.465 27.6823H173.542C173.503 27.4984 173.453 27.2685 173.395 26.9879C173.337 26.7073 173.293 26.4532 173.268 26.2234C173.138 26.6129 172.886 26.9758 172.513 27.3121C172.136 27.646 171.625 27.8153 170.972 27.8153ZM171.793 26.2379C172.004 26.2379 172.197 26.1871 172.383 26.0831C172.565 25.979 172.728 25.8629 172.872 25.7323C173.016 25.6016 173.113 25.4952 173.166 25.4153V22.5992C172.839 22.7589 172.532 22.9185 172.244 23.0806C171.957 23.2403 171.705 23.4097 171.489 23.5863C171.273 23.7629 171.102 23.9637 170.98 24.1863C170.855 24.4089 170.795 24.6629 170.795 24.9508C170.795 25.3524 170.88 25.6669 171.049 25.8944C171.218 26.1218 171.467 26.2379 171.793 26.2379Z" fill="#348C31"/>
<path d="M177.288 27.6774V17.7581H179.387V18.7355C179.766 18.4258 180.184 18.1645 180.643 17.9468C181.1 17.729 181.606 17.6202 182.154 17.6202C182.613 17.6202 182.962 17.7242 183.202 17.9298C183.443 18.1355 183.615 18.3944 183.711 18.7016C183.811 19.0113 183.858 19.3258 183.858 19.6452V27.675H181.761V20.175C181.761 19.8218 181.703 19.546 181.584 19.3524C181.465 19.1589 181.224 19.0597 180.859 19.0597C180.624 19.0597 180.378 19.1202 180.123 19.2411C179.869 19.3621 179.623 19.5073 179.387 19.679V27.675H177.288V27.6774Z" fill="#348C31"/>
<path d="M189.043 27.8153C188.152 27.8153 187.466 27.6629 186.982 27.3605C186.497 27.0581 186.16 26.6105 185.972 26.0226C185.781 25.4347 185.687 24.7089 185.687 23.8524V21.5879C185.687 20.7073 185.784 19.9742 185.98 19.3911C186.177 18.8081 186.52 18.3677 187.009 18.0702C187.499 17.7726 188.177 17.625 189.04 17.625C189.994 17.625 190.697 17.7968 191.148 18.1403C191.599 18.4839 191.898 18.9774 192.042 19.6258C192.185 20.2718 192.257 21.0484 192.257 21.9508V22.7565H187.784V24.7476C187.784 25.1492 187.825 25.4734 187.911 25.725C187.997 25.9766 188.132 26.1629 188.323 26.2839C188.511 26.4048 188.758 26.4653 189.059 26.4653C189.375 26.4653 189.613 26.4 189.776 26.2669C189.939 26.1363 190.05 25.9476 190.111 25.7008C190.169 25.454 190.199 25.1661 190.199 24.8347V24.2347H192.241V24.6121C192.241 25.6065 191.997 26.3903 191.516 26.9637C191.032 27.5298 190.207 27.8153 189.043 27.8153ZM187.787 21.7573H190.199V20.8645C190.199 20.4532 190.171 20.1073 190.122 19.8266C190.069 19.546 189.961 19.3355 189.798 19.1927C189.635 19.05 189.377 18.9774 189.023 18.9774C188.683 18.9774 188.426 19.0452 188.249 19.1831C188.072 19.321 187.95 19.5508 187.886 19.8774C187.82 20.204 187.789 20.6516 187.789 21.225V21.7573H187.787Z" fill="#348C31"/>
<path d="M67.4259 42.0145V31.5726H71.714V32.3081H68.5436V36.2395H71.1828V36.9605H68.5436V42.0145H67.4259V42.0145Z" fill="#348C31"/>
<path d="M76.0907 42.0145V31.5726H77.2111V42.0145H76.0907Z" fill="#348C31"/>
<path d="M82.2822 42.0145V31.5726H83.4026V41.279H86.7916V42.0145H82.2822Z" fill="#348C31"/>
<path d="M90.7589 42.0145L91.0549 31.5726H92.1753L94.5324 40.6355L96.9337 31.5726H98.0542L98.3502 42.0145H97.4207L97.1855 33.6992L94.9003 42.0145H94.1783L91.9236 33.7137L91.6884 42.0145H90.7589Z" fill="#348C31"/>
<path d="M111.779 42.1427C111.132 42.1427 110.592 42.0242 110.166 41.7871C109.737 41.55 109.416 41.221 109.201 40.7952C108.985 40.3694 108.852 39.8734 108.802 39.3073L109.79 39.0484C109.84 39.479 109.928 39.8661 110.055 40.2145C110.183 40.5629 110.385 40.8387 110.658 41.0395C110.932 41.2427 111.311 41.3419 111.793 41.3419C112.324 41.3419 112.736 41.221 113.032 40.9814C113.328 40.7419 113.475 40.3573 113.475 39.8347C113.475 39.3702 113.345 38.971 113.085 38.6347C112.825 38.2984 112.468 37.9476 112.017 37.5774L109.909 35.8113C109.535 35.4944 109.261 35.1653 109.084 34.8242C108.907 34.4855 108.819 34.1129 108.819 33.7089C108.819 32.9879 109.065 32.4339 109.555 32.0468C110.047 31.6597 110.7 31.4661 111.516 31.4661C111.939 31.4661 112.318 31.5145 112.659 31.6089C112.999 31.7032 113.287 31.8556 113.527 32.0661C113.768 32.2766 113.956 32.55 114.095 32.8839C114.233 33.2202 114.324 33.6266 114.374 34.1081L113.417 34.3282C113.378 33.8903 113.295 33.5129 113.173 33.2008C113.052 32.8863 112.858 32.6492 112.598 32.4847C112.338 32.3226 111.975 32.2403 111.513 32.2403C111.021 32.2403 110.62 32.3516 110.304 32.5766C109.989 32.7992 109.831 33.1476 109.831 33.6218C109.831 33.9048 109.892 34.1637 110.017 34.396C110.138 34.6282 110.357 34.8774 110.672 35.1435L112.78 36.8831C113.251 37.2702 113.66 37.6984 114.003 38.1726C114.346 38.6444 114.518 39.179 114.518 39.7718C114.518 40.2968 114.402 40.7347 114.172 41.0855C113.94 41.4387 113.619 41.7024 113.206 41.879C112.794 42.0556 112.318 42.1427 111.779 42.1427Z" fill="#348C31"/>
<path d="M120.446 42.0145V32.3347H118.192V31.575H123.764V32.3347H121.567V42.0145H120.446Z" fill="#348C31"/>
<path d="M128.021 42.0145V31.5726H130.719C131.466 31.5726 132.052 31.679 132.481 31.8895C132.91 32.1 133.214 32.4048 133.402 32.804C133.588 33.2032 133.682 33.6774 133.682 34.229C133.682 34.6161 133.632 34.9814 133.535 35.325C133.435 35.6685 133.269 35.9613 133.034 36.2008C132.799 36.4427 132.464 36.6 132.033 36.6774L133.861 42.0145H132.771L131.017 36.8831H129.144V42.0145H128.021ZM129.142 36.1621H130.661C131.161 36.1621 131.549 36.0895 131.825 35.9419C132.099 35.7968 132.296 35.5814 132.415 35.2984C132.533 35.0153 132.592 34.6573 132.592 34.229C132.592 33.5855 132.464 33.104 132.207 32.7847C131.952 32.4677 131.446 32.3081 130.688 32.3081H129.142V36.1621Z" fill="#348C31"/>
<path d="M138.501 42.0145V31.5726H142.819V32.3323H139.635V36.2516H142.23V36.9726H139.635V41.279H142.847V42.0145H138.501V42.0145Z" fill="#348C31"/>
<path d="M146.682 42.0145L149.202 31.5726H150.38L152.915 42.0145H151.808L151.219 39.2177H148.375L147.772 42.0145H146.682ZM148.541 38.5064H151.075L149.808 32.8742L148.541 38.5064Z" fill="#348C31"/>
<path d="M157.208 42.0145L157.504 31.5726H158.625L160.982 40.6355L163.386 31.5726H164.506L164.802 42.0145H163.873L163.638 33.6992L161.352 42.0145H160.63L158.376 33.7137L158.14 42.0145H157.208Z" fill="#348C31"/>
<path d="M169.765 42.0145V31.5726H170.886V42.0145H169.765Z" fill="#348C31"/>
<path d="M175.957 42.0145V31.5726H176.768L180.572 39.6798V31.5726H181.545V42.0145H180.749L176.931 33.8153V42.0145H175.957V42.0145Z" fill="#348C31"/>
<path d="M189.267 42.1548C188.509 42.1548 187.917 42.0169 187.491 41.7435C187.062 41.4677 186.76 41.0806 186.583 40.5774C186.406 40.0742 186.318 39.4935 186.318 38.8306V34.7564C186.318 34.0863 186.403 33.5056 186.575 33.0169C186.746 32.5282 187.051 32.146 187.488 31.875C187.925 31.604 188.542 31.4685 189.339 31.4685C190.055 31.4685 190.622 31.5847 191.04 31.8169C191.458 32.0492 191.759 32.3879 191.948 32.8355C192.133 33.2831 192.227 33.8274 192.227 34.4734V34.8339H191.167V34.4734C191.167 33.975 191.115 33.5637 191.012 33.2371C190.91 32.9105 190.73 32.6661 190.476 32.5016C190.221 32.3395 189.848 32.2573 189.355 32.2573C188.805 32.2573 188.392 32.3613 188.116 32.5669C187.842 32.7726 187.662 33.0556 187.579 33.4185C187.496 33.779 187.455 34.1927 187.455 34.6548V38.9468C187.455 39.4548 187.507 39.8855 187.61 40.2411C187.712 40.5968 187.906 40.8726 188.185 41.0661C188.464 41.2597 188.86 41.3565 189.372 41.3565C189.873 41.3565 190.257 41.2597 190.523 41.0661C190.788 40.8726 190.974 40.5968 191.082 40.2339C191.189 39.8734 191.245 39.4355 191.245 38.9202V37.696H189.477V36.9605H192.274V42.0145H191.552L191.419 40.829C191.272 41.2234 191.029 41.5452 190.689 41.7895C190.351 42.0339 189.875 42.1548 189.267 42.1548Z" fill="#348C31"/>
</svg>
